<svg xmlns="http://www.w3.org/2000/svg" xmlns:xlink="http://www.w3.org/1999/xlink" width="400" height="400" viewBox="0 0 400 400">
  <defs>
    <clipPath id="clip-Logo">
      <rect width="400" height="400"/>
    </clipPath>
  </defs>
  <g id="Logo" clip-path="url(#clip-Logo)">
    <rect width="400" height="400" fill="#fff"/>
    <rect id="Rectángulo_2387" data-name="Rectángulo 2387" width="400" height="400" fill="#7868e6"/>
    <path id="Trazado_1072" data-name="Trazado 1072" d="M70.586,313.048c-.33,0-.537,0-.614,0l-30.277-.5,20.844-24.23c25.963-30.182,34.082-63.694,24.132-99.6a139.749,139.749,0,0,0-24.188-47.727L51.375,130.32l19.354-20.063,9.107,10.662c.818.958,20.139,23.841,29.911,58.081,7.435,26.054,10.392,62.67-10.261,101.086a130.072,130.072,0,0,0,15.248-4.5,94.724,94.724,0,0,0,28.38-15.835,153.515,153.515,0,0,1-12.78-30.4c-5.331-17.3-1.881-33.246,9.229-42.657,11.285-9.559,28.332-9.971,40.535-.979,12.246,9.024,16.988,24.991,12.683,42.712a104,104,0,0,1-14.163,32.957q2.074,2.019,4.3,3.843c10.233,8.384,23.1,13.869,38.974,16.562a170.127,170.127,0,0,1-10.608-29.95c-7.843-31.287-9.8-79.2,25.409-129.795l8.087-11.62,21.066,17.842-8.087,11.619c-22.921,32.934-29.945,67.973-20.878,104.144a134.1,134.1,0,0,0,20.39,44.786l18.987,24.229H247.228c-33.972,0-60.187-7.948-80.143-24.3a93.681,93.681,0,0,1-7.057-6.41,120.359,120.359,0,0,1-37.713,21.335A164.249,164.249,0,0,1,70.586,313.048ZM160.3,208.521a7.24,7.24,0,0,0-4.567,1.412c-2.388,2.023-.976,7.659-.259,9.988a138.608,138.608,0,0,0,6.123,16.39,76.2,76.2,0,0,0,5.526-15.466c1.948-8.019-.859-10.087-1.782-10.767A8.554,8.554,0,0,0,160.3,208.521Z" transform="translate(42.022 -11.652)" fill="#fff" stroke="#fff" stroke-linecap="square" stroke-width="1"/>
  </g>
</svg>
